<svg xmlns="http://www.w3.org/2000/svg" version="1.1" xmlns:xlink="http://www.w3.org/1999/xlink" width="24" height="24" x="0" y="0" viewBox="0 0 682.667 682.667" style="enable-background:new 0 0 512 512" xml:space="preserve"><g><defs><clipPath id="a" clipPathUnits="userSpaceOnUse"><path d="M0 512h512V0H0Z" fill="#f9f2f2" opacity="1" data-original="#000000"></path></clipPath></defs><g clip-path="url(#a)" transform="matrix(1.33333 0 0 -1.33333 0 682.667)"><path d="M0 0c-124.617 0-226 101.383-226 226S-124.617 452 0 452s226-101.383 226-226S124.617 0 0 0m181.02 407.019C132.667 455.371 68.38 482 0 482c-68.38 0-132.667-26.629-181.02-74.981C-229.371 358.667-256 294.38-256 226c0-68.38 26.629-132.667 74.98-181.019C-132.667-3.371-68.38-30 0-30c68.38 0 132.667 26.629 181.02 74.981C229.371 93.333 256 157.62 256 226c0 68.38-26.629 132.667-74.98 181.019" style="fill-opacity:1;fill-rule:nonzero;stroke:none" transform="translate(256 30)" fill="#f9f2f2" data-original="#000000" opacity="1"></path><path d="M0 0c0 77.39 62.962 140.352 140.352 140.352 46.697 0 90.201-23.129 116.373-61.871a13.528 13.528 0 0 0 2.086-10.212 13.53 13.53 0 0 0-5.747-8.695 13.527 13.527 0 0 0-7.479-2.331c-4.635-.067-8.865 2.2-11.427 5.992-21.1 31.234-56.169 49.882-93.806 49.882C77.979 113.117 27.234 62.373 27.234 0c0-62.373 50.745-113.117 113.118-113.117 38.504 0 74.015 19.318 94.993 51.675a13.608 13.608 0 0 0 11.309 6.207 13.58 13.58 0 0 0 7.525-2.189c6.3-4.085 8.103-12.534 4.019-18.834-26.02-40.133-70.075-64.094-117.846-64.094C62.962-140.352 0-77.39 0 0m270.499-32.252-.001.001a43.496 43.496 0 0 1-24.156 7.014c-14.676-.153-28.197-7.587-36.171-19.886-15.423-23.79-41.524-37.994-69.819-37.994-45.831 0-83.118 37.286-83.118 83.117s37.287 83.117 83.118 83.117c27.658 0 53.433-13.711 68.947-36.675 8.204-12.147 21.846-19.295 36.543-19.198a43.435 43.435 0 0 1 24.016 7.472c9.655 6.522 16.192 16.413 18.406 27.851 2.215 11.439-.159 23.054-6.68 32.708-31.759 47.011-84.556 75.077-141.232 75.077C46.419 170.352-30 93.932-30 0s76.419-170.352 170.352-170.352c57.98 0 111.445 29.074 143.019 77.774 13.082 20.181 7.308 47.243-12.872 60.326" style="fill-opacity:1;fill-rule:nonzero;stroke:none" transform="translate(112.785 256)" fill="#f9f2f2" data-original="#000000" opacity="1"></path></g></g></svg>