<svg xmlns="http://www.w3.org/2000/svg" version="1.1" xmlns:xlink="http://www.w3.org/1999/xlink" width="24" height="24" x="0" y="0" viewBox="0 0 682.667 682.667" style="enable-background:new 0 0 512 512" xml:space="preserve" class=""><g><defs><clipPath id="a" clipPathUnits="userSpaceOnUse"><path d="M0 512h512V0H0Z" fill="#ddf4f2" opacity="1" data-original="#000000"></path></clipPath></defs><g clip-path="url(#a)" transform="matrix(1.33333 0 0 -1.33333 0 682.667)"><path d="M0 0h-362c-33.137 0-60 26.863-60 60v362c0 33.137 26.863 60 60 60H-1c33.137 0 61-26.863 61-60V60C60 26.863 33.137 0 0 0Z" style="stroke-width:30;stroke-linecap:round;stroke-linejoin:round;stroke-miterlimit:10;stroke-dasharray:none;stroke-opacity:1" transform="translate(437 15)" fill="none" stroke="#ddf4f2" stroke-width="30" stroke-linecap="round" stroke-linejoin="round" stroke-miterlimit="10" stroke-dasharray="none" stroke-opacity="" data-original="#000000" opacity="1" class=""></path><path d="M0 0v211h60l15 60H0v49c0 19.666 12.761 29.094 30.899 32.162 18.697 3.17 34.479-1.886 46.368-4.705 0 0 6.738 45.262 9.845 66.192-28.306 8.051-57.006 10.957-86.109 6.704-20.222-2.957-39.303-9.157-55.177-22.738-15.437-13.209-20.474-29.98-20.826-50.404-.011-.651 0 3.938 0-76.211h-45v-60h45V0" style="stroke-width:30;stroke-linecap:round;stroke-linejoin:round;stroke-miterlimit:10;stroke-dasharray:none;stroke-opacity:1" transform="translate(346 15)" fill="none" stroke="#ddf4f2" stroke-width="30" stroke-linecap="round" stroke-linejoin="round" stroke-miterlimit="10" stroke-dasharray="none" stroke-opacity="" data-original="#000000" opacity="1" class=""></path></g></g></svg>