<svg xmlns="http://www.w3.org/2000/svg" version="1.1" xmlns:xlink="http://www.w3.org/1999/xlink" width="24" height="24" x="0" y="0" viewBox="0 0 682.667 682.667" style="enable-background:new 0 0 512 512" xml:space="preserve"><g><defs><clipPath id="a" clipPathUnits="userSpaceOnUse"><path d="M0 512h512V0H0Z" fill="#f9eeee" opacity="1" data-original="#000000"></path></clipPath></defs><g clip-path="url(#a)" transform="matrix(1.33333 0 0 -1.33333 0 682.667)"><path d="M0 0c-.05-21.046-.288-42.093-.576-63.138-.348-25.391-.74-50.793-7.108-75.749-6.677-26.17-19.847-48.74-40.337-65.449-21.592-17.608-47.69-26.863-75.858-28.576-37.36-2.272-74.736-3.17-112.111-3.082-37.376-.088-74.752.81-112.111 3.082-28.168 1.713-54.266 10.968-75.858 28.576-20.49 16.709-33.66 39.279-40.338 65.449-6.368 24.956-6.76 50.358-7.107 75.749-.288 21.045-.527 42.092-.576 63.138.049 21.046.288 42.093.576 63.138.347 25.391.739 50.793 7.107 75.749 6.678 26.17 19.848 48.74 40.338 65.449 21.592 17.608 47.69 26.863 75.858 28.576 37.359 2.272 74.735 3.17 112.111 3.082 37.375.088 74.751-.81 112.111-3.082 28.168-1.713 54.266-10.968 75.858-28.576 20.49-16.709 33.66-39.279 40.337-65.449 6.368-24.956 6.76-50.358 7.108-75.749C-.288 42.093-.05 21.046 0 0Z" style="stroke-width:40;stroke-linecap:butt;stroke-linejoin:miter;stroke-miterlimit:10;stroke-dasharray:none;stroke-opacity:1" transform="translate(491.99 256)" fill="none" stroke="#f9eeee" stroke-width="40" stroke-linecap="butt" stroke-linejoin="miter" stroke-miterlimit="10" stroke-dasharray="none" stroke-opacity="" data-original="#000000" opacity="1"></path><path d="M0 0c0-57.99-47.01-105-105-105S-210-57.99-210 0s47.01 105 105 105S0 57.99 0 0Z" style="stroke-width:40;stroke-linecap:butt;stroke-linejoin:miter;stroke-miterlimit:10;stroke-dasharray:none;stroke-opacity:1" transform="translate(360 256)" fill="none" stroke="#f9eeee" stroke-width="40" stroke-linecap="butt" stroke-linejoin="miter" stroke-miterlimit="10" stroke-dasharray="none" stroke-opacity="" data-original="#000000" opacity="1"></path><path d="M0 0c0-16.568-13.432-30-30-30-16.568 0-30 13.432-30 30 0 16.568 13.432 30 30 30C-13.432 30 0 16.568 0 0" style="fill-opacity:1;fill-rule:nonzero;stroke:none" transform="translate(424 391)" fill="#f9eeee" data-original="#000000" opacity="1"></path></g></g></svg>