<svg xmlns="http://www.w3.org/2000/svg" version="1.1" xmlns:xlink="http://www.w3.org/1999/xlink" width="24" height="24" x="0" y="0" viewBox="0 0 682.667 682.667" style="enable-background:new 0 0 512 512" xml:space="preserve"><g><defs><clipPath id="b" clipPathUnits="userSpaceOnUse"><path d="M0 512h512V0H0Z" fill="#f6e9e9" opacity="1" data-original="#000000"></path></clipPath></defs><mask id="a"><rect width="100%" height="100%" fill="#ffffff" opacity="1" data-original="#ffffff"></rect><path d="M0 0c5.52 0 10-4.48 10-10S5.52-20 0-20s-10 4.48-10 10S-5.52 0 0 0" style="fill-opacity:1;fill-rule:nonzero;stroke:none" transform="matrix(1.33333 0 0 -1.33333 501.333 57.333)" fill="#ffffff" data-original="#ffffff"></path></mask><g mask="url(#a)"><g clip-path="url(#b)" transform="matrix(1.33333 0 0 -1.33333 0 682.667)"><path d="M0 0c5.52 0 10-4.48 10-10S5.52-20 0-20s-10 4.48-10 10S-5.52 0 0 0" style="fill-opacity:1;fill-rule:nonzero;stroke:none" transform="translate(376 469)" fill="#f6e9e9" data-original="#000000" opacity="1"></path><path d="M0 0c10.43 25.29 16.98 53.36 20.31 65.86C68.1 3.82 196.66 78.77 168.06 189.8c-17.23 66.87-84.43 92.66-153.12 81.37C-98.96 252.44-111.32 129-56.53 93.13l.83 3.08c2.47 9.21 5.67 21.15 7.07 27.85-5.16 17.97-5.91 35.5-2.28 52.36 12.64 83.48 193.61 82.31 171.84-33.93-3.36-17.95-9.48-34.91-21.78-49.27-29.38-34.33-75.98-14.91-65.9 18.84 5.29 17.72 15.12 45.27 16.21 63.99 1.87 31.96-43.88 38.15-58.23 1.9-6.4-16.17-5.37-32.31.38-48.45C-3.35 115.36-51.94-2.43-30.27-44.41-17.81-36.31-7.82-18.93 0 0Z" style="stroke-width:20;stroke-linecap:round;stroke-linejoin:round;stroke-miterlimit:10;stroke-dasharray:none;stroke-opacity:1" transform="translate(213.98 123.95)" fill="none" stroke="#f6e9e9" stroke-width="20" stroke-linecap="round" stroke-linejoin="round" stroke-miterlimit="10" stroke-dasharray="none" stroke-opacity="" data-original="#000000" opacity="1"></path><path d="M0 0h-412c-22.09 0-40 17.91-40 40v412c0 22.09 17.91 40 40 40H0c22.09 0 40-17.91 40-40V40C40 17.91 22.09 0 0 0Z" style="stroke-width:20;stroke-linecap:butt;stroke-linejoin:miter;stroke-miterlimit:10;stroke-dasharray:none;stroke-opacity:1" transform="translate(462 10)" fill="none" stroke="#f6e9e9" stroke-width="20" stroke-linecap="butt" stroke-linejoin="miter" stroke-miterlimit="10" stroke-dasharray="none" stroke-opacity="" data-original="#000000" opacity="1"></path><path d="M0 0h200" style="stroke-width:20;stroke-linecap:round;stroke-linejoin:round;stroke-miterlimit:10;stroke-dasharray:none;stroke-opacity:1" transform="translate(136 459)" fill="none" stroke="#f6e9e9" stroke-width="20" stroke-linecap="round" stroke-linejoin="round" stroke-miterlimit="10" stroke-dasharray="none" stroke-opacity="" data-original="#000000" opacity="1"></path></g></g></g></svg>